<svg xmlns="http://www.w3.org/2000/svg" viewBox="0 0 32 32" fill="none">
  <!-- Octopus head silhouette -->
  <path d="M16 2C9.4 2 4 6.5 4 12c0 3.2 1.8 6 4.5 7.8-.3 1.5-1 3.2-1.8 4.5-.4.6-.1 1.3.5 1.5.2.1.4.1.6 0 1.8-.8 3.2-2 4.2-3.3.6.1 1.3.2 2 .2.7 0 1.4-.1 2-.2 1 1.3 2.4 2.5 4.2 3.3.2.1.4.1.6 0 .6-.2.9-.9.5-1.5-.8-1.3-1.5-3-1.8-4.5C22.2 18 24 15.2 24 12c0-5.5-3.6-10-8-10z" fill="#1e3a5f"/>
  <!-- Tentacles -->
  <path d="M8.5 19.8c-.8 1.8-2 3.8-2.2 5.5-.1.8.5 1.2 1 .8.8-.6 1.5-2 2-3.5M23.5 19.8c.8 1.8 2 3.8 2.2 5.5.1.8-.5 1.2-1 .8-.8-.6-1.5-2-2-3.5M11 22c-.5 1.5-1.2 3.2-1 4.8.1.7.7 1 1.1.5.6-.7.8-2.2.8-3.5M21 22c.5 1.5 1.2 3.2 1 4.8-.1.7-.7 1-1.1.5-.6-.7-.8-2.2-.8-3.5" stroke="#1e3a5f" stroke-width="1.5" stroke-linecap="round" fill="none"/>
  <!-- Glasses -->
  <ellipse cx="12" cy="11.5" rx="3.5" ry="3" fill="white" stroke="#1e3a5f" stroke-width="1"/>
  <ellipse cx="20" cy="11.5" rx="3.5" ry="3" fill="white" stroke="#1e3a5f" stroke-width="1"/>
  <line x1="15.5" y1="11.5" x2="16.5" y2="11.5" stroke="#1e3a5f" stroke-width="1"/>
  <!-- Pupils -->
  <circle cx="12.5" cy="11.5" r="1.5" fill="#1e3a5f"/>
  <circle cx="20.5" cy="11.5" r="1.5" fill="#1e3a5f"/>
</svg>
